<svg xmlns="http://www.w3.org/2000/svg" xmlns:xlink="http://www.w3.org/1999/xlink" width="198" height="38.175" viewBox="0 0 198 38.175">
  <defs>
    <clipPath id="clip-path">
      <rect id="Rectangle_4" data-name="Rectangle 4" width="198" height="38.175" fill="none"/>
    </clipPath>
  </defs>
  <g id="Group_3886" data-name="Group 3886" transform="translate(-36.001 -31)">
    <g id="Group_438" data-name="Group 438" transform="translate(36.001 31)" clip-path="url(#clip-path)">
      <path id="Path_1" data-name="Path 1" d="M47.349,13.75c0-7.137,4.083-11.519,10.689-11.519,6.639,0,10.655,4.415,10.655,11.519s-4.05,11.519-10.655,11.519S47.349,20.82,47.349,13.75m17,0c0-5.51-2.689-8.265-6.307-8.265S51.7,8.24,51.7,13.75c0,5.477,2.689,8.233,6.341,8.233,3.618,0,6.307-2.722,6.307-8.233" transform="translate(-14.231 -0.671)" fill="#003764"/>
      <path id="Path_2" data-name="Path 2" d="M85.17,27.651H81.252V11.983l2.922-.464h.5l.3,2.024c2.058-1.295,3.651-2.058,5.677-2.058,2.755,0,5.178,1.428,5.178,5.577v10.59H91.908V17.527c0-2.124-.9-2.789-2.158-2.789a10.613,10.613,0,0,0-4.581,1.626Z" transform="translate(-24.421 -3.452)" fill="#003764"/>
      <path id="Path_3" data-name="Path 3" d="M119.9,26.988a17.9,17.9,0,0,1-6.008,1.062c-4.814,0-7.9-2.49-7.9-8.365,0-4.282,2.622-8.2,7.668-8.2,5.012,0,6.772,3.485,6.772,6.8a19.034,19.034,0,0,1-.133,2.324H110.2c.1,3.453,2.025,4.248,4.78,4.248a12.886,12.886,0,0,0,4.913-1.095Zm-3.552-8.963c0-1.926-.631-3.585-2.722-3.585-1.959,0-3.154,1.394-3.386,3.585Z" transform="translate(-31.855 -3.452)" fill="#003764"/>
      <path id="Path_4" data-name="Path 4" d="M139.2,15.315c-.73-1.36-1.527-2.655-2.257-4.016-.5-1.129-.963-2.324-1.461-3.453h-.266v17.2h-4.149V2.8h5.046l6.108,9.793c1.394,2.589,2.722,5.012,3.983,7.8h.232V2.8h4.149V25.041h-5.112Z" transform="translate(-39.392 -0.842)" fill="#8c9091"/>
      <path id="Path_5" data-name="Path 5" d="M176.784,26.988a17.9,17.9,0,0,1-6.008,1.062c-4.814,0-7.9-2.49-7.9-8.365,0-4.282,2.622-8.2,7.668-8.2,5.012,0,6.772,3.485,6.772,6.8a19.035,19.035,0,0,1-.133,2.324H167.091c.1,3.453,2.025,4.248,4.78,4.248a12.886,12.886,0,0,0,4.913-1.095Zm-3.552-8.963c0-1.926-.631-3.585-2.722-3.585-1.959,0-3.154,1.394-3.386,3.585Z" transform="translate(-48.952 -3.452)" fill="#8c9091"/>
      <path id="Path_6" data-name="Path 6" d="M192.538,24.318h.133L196.555,12.1h4.183l-5.81,16.066h-4.714L184.372,12.1h4.249Z" transform="translate(-55.413 -3.637)" fill="#8c9091"/>
      <path id="Path_7" data-name="Path 7" d="M222.04,27.552l-3.32.432h-.332V25.926h-.1a8.115,8.115,0,0,1-5.179,2.024,4.226,4.226,0,0,1-4.249-4.481c0-3.883,3.452-4.448,5.843-4.779l3.419-.466v-.8c0-2.124-.863-2.822-2.855-2.822a16.177,16.177,0,0,0-5.146,1.062l-.332-3.153a19.443,19.443,0,0,1,5.975-1.029c3.818,0,6.275,1.527,6.275,6.075Zm-3.918-6.9-3.22.5c-.963.133-1.992.532-1.992,1.992A1.726,1.726,0,0,0,214.7,25a6.55,6.55,0,0,0,3.419-1.428Z" transform="translate(-62.773 -3.452)" fill="#8c9091"/>
      <path id="Path_8" data-name="Path 8" d="M246.477,0V24l-3.22.6h-.5V22.739a8.58,8.58,0,0,1-5.079,1.793c-3.485,0-6.441-2.357-6.441-7.6,0-5.279,2.955-8.9,8.365-8.9a14.325,14.325,0,0,1,2.954.365V.5l3.419-.5Zm-7.635,21.378a5.472,5.472,0,0,0,3.718-1.726v-8a7.3,7.3,0,0,0-2.556-.5c-2.987,0-4.714,1.892-4.714,5.51,0,3.352,1.395,4.714,3.553,4.714" transform="translate(-69.499 0)" fill="#8c9091"/>
      <path id="Path_9" data-name="Path 9" d="M269.43,27.552l-3.32.432h-.332V25.926h-.1A8.115,8.115,0,0,1,260.5,27.95a4.226,4.226,0,0,1-4.249-4.481c0-3.883,3.453-4.448,5.843-4.779l3.419-.466v-.8c0-2.124-.863-2.822-2.854-2.822a16.178,16.178,0,0,0-5.146,1.062l-.332-3.153a19.444,19.444,0,0,1,5.975-1.029c3.817,0,6.274,1.527,6.274,6.075Zm-3.918-6.9-3.22.5c-.963.133-1.992.532-1.992,1.992A1.726,1.726,0,0,0,262.094,25a6.548,6.548,0,0,0,3.419-1.428Z" transform="translate(-77.016 -3.452)" fill="#8c9091"/>
      <path id="Path_10" data-name="Path 10" d="M279.02,15.816a2.17,2.17,0,1,1,2.183-2.17,2.174,2.174,0,0,1-2.183,2.17m1.774-2.17a1.775,1.775,0,1,0-1.774,1.813,1.793,1.793,0,0,0,1.774-1.813m-1.141,1.13-.571-.9h-.439v.9h-.364V12.416h.772c.483,0,.784.257.784.671a.786.786,0,0,1-.414.671l.653,1.017Zm-.47-1.2a.536.536,0,0,0,.276-.477c0-.208-.15-.383-.457-.383h-.358v.86Z" transform="translate(-83.203 -3.449)" fill="#8c9091"/>
      <path id="Path_11" data-name="Path 11" d="M33.991,16.882l-1.347-.657h0Z" transform="translate(-9.812 -4.877)" fill="#8c9091"/>
      <path id="Path_12" data-name="Path 12" d="M31.15,15.5h0l0,0Z" transform="translate(-9.362 -4.658)" fill="#8c9091"/>
      <path id="Path_13" data-name="Path 13" d="M24.18,15.307l-.8-.14.085.774L24.18,18l-1.628-1.365-.77-2.489-1.753.318-.61.235.122,1.009.864,2.316-2.158-1.868-.772-2.494-1.156.561-.238.209.369,1.241-.791-.617-.18.76,1.079,1.762,1.205,2.473L12.24,15.307l-.986-4.324-1.881.4L6.941,12.622l.234.817,1.16,1.612.918,2.075-2.941-2.52-.174-2.268L2.67,13.822l-.024.378,1.516,2.945L2,15.251l-.171-1.637L0,14.446v7.2L22.938,41.391l.394-.6-.394-3.816.741-.07.416-.693.6.069.278.555.485-.555V15.146Z" transform="translate(-0.001 -3.301)" fill="#8c9091"/>
      <path id="Path_14" data-name="Path 14" d="M25.452,2.33H0v9.516l1.833-.832.837.207L6.138,9.737l.8.285L9.373,8.779l1.881-.4L12.73,9.7l.353-.2,3.236,2.114,1.156-.561,2.554.8,1.753-.318,0,0,.007,0h0l1.044.509,1.347.657,1.279-.161Z" transform="translate(-0.001 -0.7)" fill="#003764"/>
      <path id="Path_15" data-name="Path 15" d="M34.281,17.024l-.674-.329Z" transform="translate(-10.101 -5.018)" fill="#fff"/>
      <path id="Path_16" data-name="Path 16" d="M9.812,14.021,9.578,13.2l-.8-.285.174,2.268,2.94,2.52-.918-2.075Z" transform="translate(-2.638 -3.883)" fill="#fff"/>
      <path id="Path_17" data-name="Path 17" d="M31.151,15.5h0Z" transform="translate(-9.362 -4.658)" fill="#fff"/>
      <path id="Path_18" data-name="Path 18" d="M20.315,15.812l.18-.76.791.616-.369-1.24.238-.209L17.919,12.1l-.354.2-1.475-1.32.986,4.324L22.6,20.046l-1.205-2.473Z" transform="translate(-4.837 -3.301)" fill="#fff"/>
      <path id="Path_19" data-name="Path 19" d="M3.457,14.953l-.837-.207.171,1.637,2.158,1.894L3.433,15.332Z" transform="translate(-0.788 -4.432)" fill="#fff"/>
      <path id="Path_20" data-name="Path 20" d="M26.928,15.844l.61-.235-2.554-.8.772,2.494,2.158,1.868-.864-2.316Z" transform="translate(-7.51 -4.45)" fill="#fff"/>
      <path id="Path_21" data-name="Path 21" d="M32.734,16.522l.8.14-1.347-.655h0L31.148,15.5v0l0,0-.007,0,0,0,.77,2.489,1.628,1.365L32.819,17.3Z" transform="translate(-9.359 -4.657)" fill="#fff"/>
      <path id="Path_22" data-name="Path 22" d="M32.644,16.226h0l.674.329Z" transform="translate(-9.812 -4.877)" fill="#fff"/>
      <path id="Path_23" data-name="Path 23" d="M53.606,44.348a1.708,1.708,0,0,0-1.466.711,3.311,3.311,0,0,0-.52,1.983q0,2.646,1.986,2.646a6.275,6.275,0,0,0,2.018-.416v1.407a5.611,5.611,0,0,1-2.175.406,3.316,3.316,0,0,1-2.64-1.047,4.431,4.431,0,0,1-.915-3.006,4.906,4.906,0,0,1,.449-2.161,3.245,3.245,0,0,1,1.29-1.423,3.817,3.817,0,0,1,1.972-.5,5.325,5.325,0,0,1,2.316.557l-.541,1.363a9.058,9.058,0,0,0-.893-.368,2.675,2.675,0,0,0-.882-.157" transform="translate(-14.996 -12.909)" fill="#003764"/>
      <path id="Path_24" data-name="Path 24" d="M74.328,47.989v3.036H72.651V43.114h2.3a3.944,3.944,0,0,1,2.387.588,2.341,2.341,0,0,1,.39,3.024,2.546,2.546,0,0,1-1.088.853q1.786,2.667,2.326,3.446H77.109l-1.889-3.036Zm0-1.363h.541a2.068,2.068,0,0,0,1.174-.265.947.947,0,0,0,.379-.833.866.866,0,0,0-.387-.8,2.348,2.348,0,0,0-1.2-.239h-.508Z" transform="translate(-21.836 -12.958)" fill="#003764"/>
      <path id="Path_25" data-name="Path 25" d="M98.239,51.025H93.682V43.114h4.556v1.374H95.36v1.737h2.678V47.6H95.36v2.04h2.878Z" transform="translate(-28.157 -12.958)" fill="#003764"/>
      <path id="Path_26" data-name="Path 26" d="M120.179,46.994a3.9,3.9,0,0,1-1.112,2.992,4.535,4.535,0,0,1-3.211,1.039h-2.24v-7.91H116.1a4.181,4.181,0,0,1,3.008,1.023,3.761,3.761,0,0,1,1.072,2.857m-1.742.043q0-2.548-2.251-2.549h-.893V49.64h.719q2.425,0,2.424-2.6" transform="translate(-34.147 -12.958)" fill="#003764"/>
      <rect id="Rectangle_2" data-name="Rectangle 2" width="1.677" height="7.911" transform="translate(94.867 30.157)" fill="#003764"/>
      <path id="Path_27" data-name="Path 27" d="M155.559,51.025h-1.677V44.511h-2.148v-1.4h5.973v1.4h-2.148Z" transform="translate(-45.604 -12.958)" fill="#003764"/>
      <path id="Path_28" data-name="Path 28" d="M188.56,43.115v5.119a2.949,2.949,0,0,1-.392,1.537,2.553,2.553,0,0,1-1.133,1.011,4.05,4.05,0,0,1-1.754.352,3.355,3.355,0,0,1-2.37-.782,2.772,2.772,0,0,1-.844-2.14v-5.1h1.672v4.843a2.032,2.032,0,0,0,.368,1.342,1.531,1.531,0,0,0,1.218.427,1.5,1.5,0,0,0,1.193-.43,2.04,2.04,0,0,0,.371-1.35V43.115Z" transform="translate(-54.72 -12.958)" fill="#003764"/>
      <path id="Path_29" data-name="Path 29" d="M212.07,51.025h-2.132L206.5,45.04h-.048q.1,1.586.1,2.262v3.722h-1.5V43.114h2.115l3.436,5.925h.038q-.082-1.542-.081-2.18V43.114h1.509Z" transform="translate(-61.628 -12.958)" fill="#003764"/>
      <rect id="Rectangle_3" data-name="Rectangle 3" width="1.677" height="7.911" transform="translate(159.638 30.157)" fill="#003764"/>
      <path id="Path_30" data-name="Path 30" d="M251.158,47.006a4.292,4.292,0,0,1-.974,3.019,4.221,4.221,0,0,1-5.585,0A4.308,4.308,0,0,1,243.626,47a4.25,4.25,0,0,1,.976-3.017,3.651,3.651,0,0,1,2.8-1.041,3.6,3.6,0,0,1,2.789,1.05,4.3,4.3,0,0,1,.966,3.019m-5.773,0a3.311,3.311,0,0,0,.5,2,1.763,1.763,0,0,0,1.5.671q2.007,0,2.007-2.668t-2-2.673a1.773,1.773,0,0,0-1.509.674,3.289,3.289,0,0,0-.508,2" transform="translate(-73.222 -12.905)" fill="#003764"/>
      <path id="Path_31" data-name="Path 31" d="M272.2,51.025h-2.132l-3.441-5.985h-.048q.1,1.586.1,2.262v3.722h-1.5V43.114h2.115l3.436,5.925h.038q-.082-1.542-.081-2.18V43.114H272.2Z" transform="translate(-79.699 -12.958)" fill="#003764"/>
    </g>
  </g>
</svg>
